<?xml version="1.0" standalone="no"?>
<!DOCTYPE svg PUBLIC "-//W3C//DTD SVG 20010904//EN"
 "http://www.w3.org/TR/2001/REC-SVG-20010904/DTD/svg10.dtd">
<svg version="1.0" xmlns="http://www.w3.org/2000/svg"
 width="150.000000pt" height="171.000000pt" viewBox="0 0 150.000000 171.000000"
 preserveAspectRatio="xMidYMid meet">

<g transform="translate(0.000000,171.000000) scale(0.100000,-0.100000)"
fill="#000000" stroke="none">
<path d="M169 1553 c-8 -10 -25 -39 -37 -64 -22 -46 -22 -48 -22 -630 l0 -584
28 -54 c39 -78 53 -84 100 -38 21 20 45 37 53 37 8 0 30 -16 49 -35 19 -19 39
-35 45 -35 6 0 26 16 45 35 19 19 41 35 50 35 9 0 31 -16 50 -35 19 -19 39
-35 45 -35 6 0 26 16 45 35 19 19 41 35 50 35 9 0 31 -16 50 -35 19 -19 39
-35 45 -35 6 0 26 16 45 35 19 19 41 35 50 35 9 0 31 -16 50 -35 19 -19 39
-35 45 -35 6 0 26 16 45 35 19 19 41 35 50 35 9 0 31 -16 50 -35 19 -19 39
-35 45 -35 6 0 26 16 45 35 19 19 41 35 49 35 8 0 32 -17 53 -37 47 -46 61
-40 100 38 l28 54 0 585 0 585 -28 54 c-39 78 -53 84 -100 38 -21 -20 -45 -37
-53 -37 -8 0 -30 16 -49 35 -19 19 -39 35 -45 35 -6 0 -26 -16 -45 -35 -19
-19 -41 -35 -50 -35 -9 0 -31 16 -50 35 -19 19 -39 35 -45 35 -6 0 -26 -16
-45 -35 -19 -19 -41 -35 -50 -35 -9 0 -31 16 -50 35 -19 19 -39 35 -45 35 -6
0 -26 -16 -45 -35 -19 -19 -41 -35 -50 -35 -9 0 -31 16 -50 35 -19 19 -39 35
-45 35 -6 0 -26 -16 -45 -35 -19 -19 -41 -35 -50 -35 -9 0 -31 16 -50 35 -19
19 -39 35 -45 35 -6 0 -26 -16 -45 -35 -19 -19 -41 -35 -50 -35 -9 0 -31 16
-50 35 -38 40 -51 43 -71 18z m261 -128 c19 -19 41 -35 50 -35 9 0 31 16 50
35 19 19 39 35 45 35 6 0 26 -16 45 -35 19 -19 41 -35 50 -35 9 0 31 16 50 35
19 19 39 35 45 35 6 0 26 -16 45 -35 19 -19 41 -35 50 -35 9 0 31 16 50 35 19
19 39 35 45 35 6 0 26 -16 45 -35 19 -19 41 -35 50 -35 9 0 31 16 50 35 19 19
39 35 45 35 6 0 26 -16 45 -35 41 -42 55 -43 91 -9 17 16 34 24 43 21 14 -6
16 -69 16 -577 0 -508 -2 -571 -16 -577 -9 -3 -26 5 -43 21 -36 34 -50 33 -91
-9 -19 -19 -39 -35 -45 -35 -6 0 -26 16 -45 35 -19 19 -41 35 -50 35 -9 0 -31
-16 -50 -35 -19 -19 -39 -35 -45 -35 -6 0 -26 16 -45 35 -19 19 -41 35 -50 35
-9 0 -31 -16 -50 -35 -19 -19 -39 -35 -45 -35 -6 0 -26 16 -45 35 -19 19 -41
35 -50 35 -9 0 -31 -16 -50 -35 -19 -19 -39 -35 -45 -35 -6 0 -26 16 -45 35
-19 19 -41 35 -50 35 -9 0 -31 -16 -50 -35 -19 -19 -39 -35 -45 -35 -6 0 -26
16 -45 35 -41 42 -55 43 -91 9 -17 -16 -34 -24 -43 -21 -14 6 -16 69 -16 577
0 508 2 571 16 577 9 3 26 -5 43 -21 36 -34 50 -33 91 9 19 19 39 35 45 35 6
0 26 -16 45 -35z"/>
<path d="M318 1229 c-21 -12 -24 -49 -6 -67 17 -17 609 -17 626 0 17 17 15 42
-6 61 -16 15 -52 17 -308 17 -178 0 -296 -5 -306 -11z"/>
<path d="M1069 1221 c-21 -16 -22 -22 -11 -45 11 -24 16 -26 80 -26 70 0 92
10 92 41 0 33 -29 49 -85 49 -37 0 -60 -6 -76 -19z"/>
<path d="M318 1039 c-21 -12 -24 -49 -6 -67 17 -17 609 -17 626 0 17 17 15 42
-6 61 -16 15 -52 17 -308 17 -178 0 -296 -5 -306 -11z"/>
<path d="M1069 1031 c-21 -16 -22 -22 -11 -45 11 -24 16 -26 80 -26 70 0 92
10 92 41 0 33 -29 49 -85 49 -37 0 -60 -6 -76 -19z"/>
<path d="M318 849 c-21 -12 -24 -49 -6 -67 17 -17 609 -17 626 0 17 17 15 42
-6 61 -16 15 -52 17 -308 17 -178 0 -296 -5 -306 -11z"/>
<path d="M1069 841 c-21 -16 -22 -22 -11 -45 11 -24 16 -26 80 -26 70 0 92 10
92 41 0 33 -29 49 -85 49 -37 0 -60 -6 -76 -19z"/>
<path d="M318 659 c-21 -12 -24 -49 -6 -67 17 -17 609 -17 626 0 17 17 15 42
-6 61 -16 15 -52 17 -308 17 -178 0 -296 -5 -306 -11z"/>
<path d="M1069 651 c-21 -16 -22 -22 -11 -45 11 -24 16 -26 80 -26 70 0 92 10
92 41 0 33 -29 49 -85 49 -37 0 -60 -6 -76 -19z"/>
</g>
</svg>
